<svg xmlns="http://www.w3.org/2000/svg" width="17.349" height="46.265" viewBox="0 0 17.349 46.265">
  <path id="Icon_awesome-info" data-name="Icon awesome-info" d="M1.807,38.334H3.614V25.281H1.807A1.807,1.807,0,0,1,0,23.473V19.157a1.807,1.807,0,0,1,1.807-1.807H11.928a1.807,1.807,0,0,1,1.807,1.807V38.334h1.807a1.807,1.807,0,0,1,1.807,1.807v4.317a1.807,1.807,0,0,1-1.807,1.807H1.807A1.807,1.807,0,0,1,0,44.458V40.141A1.807,1.807,0,0,1,1.807,38.334ZM8.675,0a6.506,6.506,0,1,0,6.506,6.506A6.506,6.506,0,0,0,8.675,0Z"/>
</svg>
